<svg xmlns="http://www.w3.org/2000/svg" width="38" height="38" viewBox="0 0 24 24">
  <g fill="none" stroke="#2e344e" stroke-linecap="round" stroke-linejoin="round" stroke-width="1.5" color="#2e344e">
    <path d="M17 11.805c0-.346 0-.519.052-.673c.151-.448.55-.621.95-.803c.448-.205.672-.307.895-.325c.252-.02.505.034.721.155c.286.16.486.466.69.714c.943 1.146 1.415 1.719 1.587 2.35c.14.51.14 1.044 0 1.553c-.251.922-1.046 1.694-1.635 2.41c-.301.365-.452.548-.642.655a1.27 1.27 0 0 1-.721.155c-.223-.018-.447-.12-.896-.325c-.4-.182-.798-.355-.949-.803c-.052-.154-.052-.327-.052-.672zm-10 0c0-.436-.012-.827-.364-1.133c-.128-.111-.298-.188-.637-.343c-.449-.204-.673-.307-.896-.325c-.667-.054-1.026.402-1.41.87c-.944 1.145-1.416 1.718-1.589 2.35a2.94 2.94 0 0 0 0 1.553c.252.921 1.048 1.694 1.636 2.409c.371.45.726.861 1.363.81c.223-.018.447-.12.896-.325c.34-.154.509-.232.637-.343c.352-.306.364-.697.364-1.132z"></path>
    <path d="M20 10.5V9c0-3.866-3.582-7-8-7S4 5.134 4 9v1.5m16 7c0 4.5-4 4.5-8 4.5"></path>
  </g>
</svg>
